#N canvas 167 96 1020 590 12;
#X obj -30 -30 preset_hub k12 1 %hidden%;
#X obj 140 100 netreceive -u -b;
#X obj 140 129 oscparse;
#X obj 140 158 list trim;
#X obj 140 187 route toggle on;
#X obj 140 266 pack 0 0;
#X obj 140 380 tgl 15 0 empty empty empty 17 7 0 10 #fcfcfc #000000
#000000 0 1 1;
#X obj 160 340 tgl 15 0 empty empty empty 17 7 0 10 #fcfcfc #000000
#000000 0 1 1;
#X obj 178 340 tgl 15 0 empty empty empty 17 7 0 10 #fcfcfc #000000
#000000 0 1 1;
#X obj 196 340 tgl 15 0 empty empty empty 17 7 0 10 #fcfcfc #000000
#000000 0 1 1;
#X obj 220 340 tgl 15 0 empty empty empty 17 7 0 10 #fcfcfc #000000
#000000 0 1 1;
#X obj 240 340 tgl 15 0 empty empty empty 17 7 0 10 #fcfcfc #000000
#000000 0 1 1;
#X obj 258 340 tgl 15 0 empty empty empty 17 7 0 10 #fcfcfc #000000
#000000 0 1 1;
#X obj 276 340 tgl 15 0 empty empty empty 17 7 0 10 #fcfcfc #000000
#000000 0 1 1;
#X obj 300 340 tgl 15 0 empty empty empty 17 7 0 10 #fcfcfc #000000
#000000 0 1 1;
#X obj 320 340 tgl 15 0 empty empty empty 17 7 0 10 #fcfcfc #000000
#000000 0 1 1;
#X obj 338 340 tgl 15 0 empty empty empty 17 7 0 10 #fcfcfc #000000
#000000 0 1 1;
#X obj 356 340 tgl 15 0 empty empty empty 17 7 0 10 #fcfcfc #000000
#000000 0 1 1;
#X obj 390 340 tgl 15 0 empty empty empty 17 7 0 10 #fcfcfc #000000
#000000 0 1 1;
#X obj 410 340 tgl 15 0 empty empty empty 17 7 0 10 #fcfcfc #000000
#000000 0 1 1;
#X obj 428 340 tgl 15 0 empty empty empty 17 7 0 10 #fcfcfc #000000
#000000 0 1 1;
#X obj 446 340 tgl 15 0 empty empty empty 17 7 0 10 #fcfcfc #000000
#000000 0 1 1;
#X obj 470 340 tgl 15 0 empty empty empty 17 7 0 10 #fcfcfc #000000
#000000 0 1 1;
#X obj 490 340 tgl 15 0 empty empty empty 17 7 0 10 #fcfcfc #000000
#000000 0 1 1;
#X obj 508 340 tgl 15 0 empty empty empty 17 7 0 10 #fcfcfc #000000
#000000 0 1 1;
#X obj 526 340 tgl 15 0 empty empty empty 17 7 0 10 #fcfcfc #000000
#000000 0 1 1;
#X obj 550 340 tgl 15 0 empty empty empty 17 7 0 10 #fcfcfc #000000
#000000 0 1 1;
#X obj 570 340 tgl 15 0 empty empty empty 17 7 0 10 #fcfcfc #000000
#000000 0 1 1;
#X obj 588 340 tgl 15 0 empty empty empty 17 7 0 10 #fcfcfc #000000
#000000 0 1 1;
#X obj 606 340 tgl 15 0 empty empty empty 17 7 0 10 #fcfcfc #000000
#000000 0 1 1;
#X msg 140 20 listen 5005;
#X msg 170 50 listen 0;
#X text 270 20 osc incoming port (set in python program);
#X text 270 50 turn off listening/close connection;
#X text 270 100 receive \, -u for udp \, -b for binary;
#X text 270 130 convert it to something pd understands;
#X text 270 160 remove "list" from start of message;
#X text 270 190 separate the toggle and on messages;
#X text 270 270 pack them together;
#X text 710 270 route messages accordingto which pin they're from
;
#X text 710 310 toggles for start/stop audio;
#X obj 140 295 route 2 3 4 5 6 7 8 9 10 11 12 13 14 15 16 17 18 19
20 21 22 23 24 25 26, f 73;
#X obj 630 340 tgl 15 0 empty empty empty 17 7 0 10 #fcfcfc #000000
#000000 0 1 1;
#X text 630 30 to do:- place soundfiles in this patch's directory-
readsf~ for each soundfile- toggles can be used to play/pause each
filewith the right connection to messages- figure out why pi audio
won't turn on;
#X text 160 380 for some reason toggle26 is coming through this channel
of the route object;
#X connect 1 0 2 0;
#X connect 2 0 3 0;
#X connect 3 0 4 0;
#X connect 4 0 5 0;
#X connect 4 1 5 1;
#X connect 5 0 41 0;
#X connect 30 0 1 0;
#X connect 31 0 1 0;
#X connect 41 0 6 0;
#X connect 41 1 7 0;
#X connect 41 2 8 0;
#X connect 41 3 9 0;
#X connect 41 4 10 0;
#X connect 41 5 11 0;
#X connect 41 6 12 0;
#X connect 41 7 13 0;
#X connect 41 8 14 0;
#X connect 41 9 15 0;
#X connect 41 10 16 0;
#X connect 41 11 17 0;
#X connect 41 12 18 0;
#X connect 41 13 19 0;
#X connect 41 14 20 0;
#X connect 41 15 21 0;
#X connect 41 16 22 0;
#X connect 41 17 23 0;
#X connect 41 18 24 0;
#X connect 41 19 25 0;
#X connect 41 20 26 0;
#X connect 41 21 27 0;
#X connect 41 22 28 0;
#X connect 41 23 29 0;
#X connect 41 24 42 0;
